<svg width="24" height="24" viewBox="0 0 24 24" fill="none" xmlns="http://www.w3.org/2000/svg">
<path fill-rule="evenodd" clip-rule="evenodd" d="M12 15.8691C9.8439 15.8691 8.09756 14.1333 8.09756 12C8.09756 9.85697 9.8439 8.12121 12 8.12121C14.1463 8.12121 15.8927 9.85697 15.8927 12C15.8927 14.1333 14.1463 15.8691 12 15.8691ZM21.9415 11.7091C20.8976 9.29455 19.4439 7.36388 17.7366 6.04606C16.0293 4.71758 14.0683 4 12 4H11.9902C7.86341 4 4.14634 6.87903 2.05854 11.7091C1.98049 11.8924 1.98049 12.1067 2.05854 12.2812C4.14634 17.1103 7.86341 20 11.9902 20H12C16.1366 20 19.8537 17.1103 21.9415 12.2812C22.0195 12.1067 22.0195 11.8924 21.9415 11.7091Z" fill="#CDCDD0"/>
<path fill-rule="evenodd" clip-rule="evenodd" d="M14.431 11.9969C14.431 13.3254 13.3384 14.4114 12.0018 14.4114C10.6554 14.4114 9.56274 13.3254 9.56274 11.9969C9.56274 11.832 9.58226 11.6778 9.61152 11.5227H9.66031C10.7432 11.5227 11.6213 10.6694 11.6603 9.60172C11.7676 9.5833 11.8847 9.57263 12.0018 9.57263C13.3384 9.57263 14.431 10.6587 14.431 11.9969Z" fill="#040415"/>
</svg>
