<svg width="24" height="24" viewBox="0 0 24 24" fill="none" xmlns="http://www.w3.org/2000/svg">
<path fill-rule="evenodd" clip-rule="evenodd" d="M12 3.8819H11.9902C7.86341 3.8819 4.14634 6.80589 2.05854 11.7087C1.98049 11.8958 1.98049 12.1124 2.05854 12.2896C2.73171 13.8737 3.58049 15.253 4.5561 16.395L8.16585 12.7523C8.12683 12.516 8.09756 12.2601 8.09756 12.0041C8.09756 9.82833 9.8439 8.06606 12 8.06606C12.2537 8.06606 12.5073 8.09559 12.7415 8.13497L16 4.84573C14.7512 4.21663 13.3951 3.8819 12 3.8819ZM21.9415 11.7087C21.0439 9.60189 19.8439 7.84947 18.4293 6.54991L15.2195 9.78895C15.639 10.419 15.8927 11.1869 15.8927 12.0041C15.8927 14.17 14.1463 15.9323 12 15.9323C11.1902 15.9323 10.4293 15.6753 9.80488 15.253L6.71219 18.3739C8.30244 19.506 10.1073 20.1263 11.9902 20.1263H12C16.1366 20.1263 19.8537 17.1925 21.9415 12.2896C22.0195 12.1124 22.0195 11.8958 21.9415 11.7087Z" fill="#CDCDD0"/>
<path fill-rule="evenodd" clip-rule="evenodd" d="M18.4293 6.54952L20.205 4.75771C20.4976 4.4722 20.4976 3.99964 20.205 3.71413C19.922 3.42862 19.4635 3.42862 19.1708 3.71413L18.2537 4.63957C18.244 4.65926 18.2245 4.67895 18.205 4.69864C18.1952 4.71833 18.1757 4.73802 18.1562 4.75771L17.2879 5.63491L14.1952 8.7558L3.72691 19.3186L3.69764 19.358C3.50252 19.6435 3.54154 20.0383 3.78545 20.2844C3.92203 20.4311 4.11715 20.5 4.30252 20.5C4.48789 20.5 4.67325 20.4311 4.81959 20.2844L15.2196 9.78855L18.4293 6.54952ZM12.0002 14.4555C13.3368 14.4555 14.4294 13.3529 14.4294 12.0041C14.4294 11.5906 14.3319 11.1968 14.1563 10.8621L10.8685 14.1798C11.2002 14.3571 11.5904 14.4555 12.0002 14.4555Z" fill="#040415"/>
</svg>
